<svg xmlns="http://www.w3.org/2000/svg" viewBox="0 0 22 18" fill="#ffffff">
<path d="M18.952 2.57477C17.048 1.04377 14.036 0.784766 13.908 0.773766C13.707 0.756766 13.516 0.870766 13.434 1.05477C13.428 1.06677 13.362 1.21777 13.289 1.45277C14.548 1.66477 16.095 2.09277 17.495 2.96177C17.719 3.10077 17.788 3.39577 17.649 3.62077C17.559 3.76677 17.402 3.84677 17.242 3.84677C17.156 3.84677 17.069 3.82377 16.99 3.77477C14.584 2.28277 11.578 2.20777 11 2.20777C10.422 2.20777 7.415 2.28277 5.011 3.77477C4.786 3.91477 4.492 3.84477 4.352 3.62077C4.212 3.39577 4.282 3.10177 4.506 2.96177C5.906 2.09377 7.452 1.66477 8.712 1.45277C8.638 1.21677 8.572 1.06677 8.567 1.05477C8.484 0.870766 8.294 0.754766 8.092 0.774766C7.965 0.784766 4.953 1.04377 3.023 2.59677C2.015 3.52777 0 8.97577 0 13.6858C0 13.7688 0.022 13.8508 0.063 13.9228C1.454 16.3658 5.248 17.0058 6.113 17.0338C6.118 17.0338 6.123 17.0338 6.128 17.0338C6.281 17.0338 6.425 16.9608 6.515 16.8368L7.39 15.6348C5.031 15.0248 3.826 13.9898 3.756 13.9288C3.558 13.7538 3.539 13.4518 3.714 13.2538C3.889 13.0558 4.19 13.0368 4.388 13.2108C4.417 13.2368 6.636 15.1198 11 15.1198C15.372 15.1198 17.591 13.2288 17.613 13.2098C17.811 13.0378 18.113 13.0558 18.287 13.2548C18.461 13.4528 18.442 13.7538 18.245 13.9278C18.175 13.9898 16.97 15.0238 14.611 15.6338L15.486 16.8358C15.576 16.9598 15.72 17.0328 15.873 17.0328C15.878 17.0328 15.883 17.0328 15.888 17.0328C16.753 17.0058 20.547 16.3658 21.938 13.9218C21.978 13.8498 22 13.7688 22 13.6858C22 8.97577 19.985 3.52777 18.952 2.57477ZM7.89104 11.7728C6.96704 11.7728 6.21704 10.9158 6.21704 9.85976C6.21704 8.80376 6.96604 7.94676 7.89104 7.94676C8.81604 7.94676 9.56504 8.80376 9.56504 9.85976C9.56504 10.9158 8.81604 11.7728 7.89104 11.7728ZM14.1091 11.7728C13.1851 11.7728 12.4351 10.9158 12.4351 9.85976C12.4351 8.80376 13.1841 7.94676 14.1091 7.94676C15.0331 7.94676 15.7831 8.80376 15.7831 9.85976C15.7831 10.9158 15.0331 11.7728 14.1091 11.7728Z" fill="#ffffff"/>
</svg>